<svg preserveAspectRatio="none" width="100%" height="100%" overflow="visible" style="display: block;" viewBox="0 0 19 19" fill="none" xmlns="http://www.w3.org/2000/svg">
<g id="wpf:name">
<g id="Vector">
<path d="M12.1037 11.6192C11.9875 11.5812 11.2531 11.2502 11.712 9.85515H11.7055C12.9017 8.62308 13.8159 6.6405 13.8159 4.68862C13.8159 1.68735 11.8202 0.114 9.50073 0.114C7.17981 0.114 5.19504 1.68662 5.19504 4.68862C5.19504 6.64854 6.10412 8.63915 7.30769 9.86831C7.77685 11.0989 6.93792 11.5557 6.76254 11.62C4.33346 12.4983 1.48346 14.0995 1.48346 15.6801V16.2728C1.48346 18.4263 5.65908 18.916 9.52338 18.916C13.3935 18.916 17.5165 18.4263 17.5165 16.2728V15.6801C17.5165 14.052 14.6527 12.4633 12.1037 11.6192Z" fill="var(--fill-0, #5B099B)"/>
<path d="M12.1037 11.6192C11.9875 11.5812 11.2531 11.2502 11.712 9.85515H11.7055C12.9017 8.62308 13.8159 6.6405 13.8159 4.68862C13.8159 1.68735 11.8202 0.114 9.50073 0.114C7.17981 0.114 5.19504 1.68662 5.19504 4.68862C5.19504 6.64854 6.10412 8.63915 7.30769 9.86831C7.77685 11.0989 6.93792 11.5557 6.76254 11.62C4.33346 12.4983 1.48346 14.0995 1.48346 15.6801V16.2728C1.48346 18.4263 5.65908 18.916 9.52338 18.916C13.3935 18.916 17.5165 18.4263 17.5165 16.2728V15.6801C17.5165 14.052 14.6527 12.4633 12.1037 11.6192Z" fill="url(#paint0_radial_8658_471)"/>
<path d="M12.1037 11.6192C11.9875 11.5812 11.2531 11.2502 11.712 9.85515H11.7055C12.9017 8.62308 13.8159 6.6405 13.8159 4.68862C13.8159 1.68735 11.8202 0.114 9.50073 0.114C7.17981 0.114 5.19504 1.68662 5.19504 4.68862C5.19504 6.64854 6.10412 8.63915 7.30769 9.86831C7.77685 11.0989 6.93792 11.5557 6.76254 11.62C4.33346 12.4983 1.48346 14.0995 1.48346 15.6801V16.2728C1.48346 18.4263 5.65908 18.916 9.52338 18.916C13.3935 18.916 17.5165 18.4263 17.5165 16.2728V15.6801C17.5165 14.052 14.6527 12.4633 12.1037 11.6192Z" fill="url(#paint1_radial_8658_471)"/>
<path d="M12.1037 11.6192C11.9875 11.5812 11.2531 11.2502 11.712 9.85515H11.7055C12.9017 8.62308 13.8159 6.6405 13.8159 4.68862C13.8159 1.68735 11.8202 0.114 9.50073 0.114C7.17981 0.114 5.19504 1.68662 5.19504 4.68862C5.19504 6.64854 6.10412 8.63915 7.30769 9.86831C7.77685 11.0989 6.93792 11.5557 6.76254 11.62C4.33346 12.4983 1.48346 14.0995 1.48346 15.6801V16.2728C1.48346 18.4263 5.65908 18.916 9.52338 18.916C13.3935 18.916 17.5165 18.4263 17.5165 16.2728V15.6801C17.5165 14.052 14.6527 12.4633 12.1037 11.6192Z" fill="url(#paint2_radial_8658_471)" fill-opacity="0.3"/>
</g>
</g>
<defs>
<radialGradient id="paint0_radial_8658_471" cx="0" cy="0" r="1" gradientTransform="matrix(2.27743 27.6154 13.6127 -11.6755 8.49793 -5.76161)" gradientUnits="userSpaceOnUse">
<stop offset="0.241623" stop-color="#AA229C" stop-opacity="0.92"/>
<stop offset="0.848853" stop-color="#A25FF8" stop-opacity="0.89"/>
</radialGradient>
<radialGradient id="paint1_radial_8658_471" cx="0" cy="0" r="1" gradientTransform="matrix(2.36852 18.0675 10.734 -14.6346 7.13148 0.113999)" gradientUnits="userSpaceOnUse">
<stop stop-color="#C243FE"/>
<stop offset="1" stop-color="#B62FF6" stop-opacity="0.12"/>
</radialGradient>
<radialGradient id="paint2_radial_8658_471" cx="0" cy="0" r="1" gradientTransform="matrix(-2.82401 -9.98854 5.29122 -15.5581 6.4938 14.5093)" gradientUnits="userSpaceOnUse">
<stop stop-color="white" stop-opacity="0.73"/>
<stop offset="1" stop-color="white" stop-opacity="0.12"/>
</radialGradient>
</defs>
</svg>
