<svg preserveAspectRatio="none" width="100%" height="100%" overflow="visible" style="display: block;" viewBox="0 0 19 19" fill="none" xmlns="http://www.w3.org/2000/svg">
<g id="Frame 425">
<path id="Vector" d="M19 9.5C19 10.3855 18.363 11.0497 17.8006 11.6358C17.4808 11.97 17.15 12.3144 17.0254 12.6172C16.91 12.8946 16.9032 13.3543 16.8964 13.7996C16.8837 14.6275 16.8701 15.5656 16.2179 16.2179C15.5656 16.8701 14.6275 16.8837 13.7996 16.8964C13.3543 16.9032 12.8946 16.91 12.6172 17.0254C12.3144 17.15 11.97 17.4808 11.6358 17.8006C11.0497 18.363 10.3855 19 9.5 19C8.61446 19 7.95031 18.363 7.3642 17.8006C7.03 17.4808 6.68562 17.15 6.38281 17.0254C6.10545 16.91 5.64571 16.9032 5.2004 16.8964C4.37254 16.8837 3.43442 16.8701 2.78214 16.2179C2.12987 15.5656 2.11629 14.6275 2.10357 13.7996C2.09679 13.3543 2.09 12.8946 1.97464 12.6172C1.84996 12.3144 1.51915 11.97 1.19937 11.6358C0.637009 11.0497 0 10.3855 0 9.5C0 8.61446 0.637009 7.95031 1.19937 7.3642C1.51915 7.03 1.84996 6.68562 1.97464 6.38281C2.09 6.10545 2.09679 5.64571 2.10357 5.2004C2.11629 4.37254 2.12987 3.43442 2.78214 2.78214C3.43442 2.12987 4.37254 2.11629 5.2004 2.10357C5.64571 2.09679 6.10545 2.09 6.38281 1.97464C6.68562 1.84996 7.03 1.51915 7.3642 1.19937C7.95031 0.637009 8.61446 0 9.5 0C10.3855 0 11.0497 0.637009 11.6358 1.19937C11.97 1.51915 12.3144 1.84996 12.6172 1.97464C12.8946 2.09 13.3543 2.09679 13.7996 2.10357C14.6275 2.11629 15.5656 2.12987 16.2179 2.78214C16.8701 3.43442 16.8837 4.37254 16.8964 5.2004C16.9032 5.64571 16.91 6.10545 17.0254 6.38281C17.15 6.68562 17.4808 7.03 17.8006 7.3642C18.363 7.95031 19 8.61446 19 9.5Z" fill="url(#paint0_linear_8655_515)"/>
</g>
<defs>
<linearGradient id="paint0_linear_8655_515" x1="9.5" y1="0" x2="9.5" y2="19" gradientUnits="userSpaceOnUse">
<stop stop-color="#E5E5E5"/>
<stop offset="1" stop-color="#57534D"/>
</linearGradient>
</defs>
</svg>
