<svg preserveAspectRatio="none" width="100%" height="100%" overflow="visible" style="display: block;" viewBox="0 0 15 15" fill="none" xmlns="http://www.w3.org/2000/svg">
<g id="mage:filter">
<path id="Vector" d="M13.2812 7.5H5.55938M2.83375 7.5H1.71875M2.83375 7.5C2.83375 7.13864 2.9773 6.79209 3.23282 6.53657C3.48834 6.28105 3.83489 6.1375 4.19625 6.1375C4.55761 6.1375 4.90416 6.28105 5.15968 6.53657C5.4152 6.79209 5.55875 7.13864 5.55875 7.5C5.55875 7.86136 5.4152 8.20791 5.15968 8.46343C4.90416 8.71895 4.55761 8.8625 4.19625 8.8625C3.83489 8.8625 3.48834 8.71895 3.23282 8.46343C2.9773 8.20791 2.83375 7.86136 2.83375 7.5ZM13.2812 11.6294H9.68875M9.68875 11.6294C9.68875 11.9908 9.54486 12.3378 9.28928 12.5933C9.0337 12.8489 8.68707 12.9925 8.32563 12.9925C7.96427 12.9925 7.61771 12.8483 7.36219 12.5928C7.10667 12.3373 6.96312 11.9907 6.96312 11.6294M9.68875 11.6294C9.68875 11.2679 9.54486 10.9216 9.28928 10.666C9.0337 10.4105 8.68707 10.2669 8.32563 10.2669C7.96427 10.2669 7.61771 10.4104 7.36219 10.6659C7.10667 10.9215 6.96312 11.268 6.96312 11.6294M6.96312 11.6294H1.71875M13.2812 3.37063H11.3406M8.615 3.37063H1.71875M8.615 3.37063C8.615 3.00927 8.75855 2.66271 9.01407 2.40719C9.26959 2.15167 9.61614 2.00813 9.9775 2.00813C10.1564 2.00813 10.3336 2.04337 10.4989 2.11184C10.6642 2.18031 10.8144 2.28067 10.9409 2.40719C11.0675 2.53371 11.1678 2.68391 11.2363 2.84922C11.3048 3.01453 11.34 3.1917 11.34 3.37063C11.34 3.54955 11.3048 3.72673 11.2363 3.89203C11.1678 4.05734 11.0675 4.20754 10.9409 4.33406C10.8144 4.46058 10.6642 4.56094 10.4989 4.62941C10.3336 4.69788 10.1564 4.73312 9.9775 4.73312C9.61614 4.73312 9.26959 4.58958 9.01407 4.33406C8.75855 4.07854 8.615 3.73198 8.615 3.37063Z" stroke="var(--stroke-0, white)" stroke-miterlimit="10" stroke-linecap="round"/>
</g>
</svg>
