<svg preserveAspectRatio="none" width="100%" height="100%" overflow="visible" style="display: block;" viewBox="0 0 42 42" fill="none" xmlns="http://www.w3.org/2000/svg">
<g id="Group 15">
<circle id="Ellipse 1" cx="21" cy="21" r="20" fill="var(--fill-0, white)" stroke="var(--stroke-0, #CBD0DC)" stroke-width="2"/>
<g id="ant-design:bank-outlined">
<g id="Vector">
<path d="M29.9531 18.8281C30.6773 18.8281 30.9797 17.8977 30.3914 17.4687L21.4406 10.9578C21.3128 10.8642 21.1585 10.8137 21 10.8137C20.8415 10.8137 20.6872 10.8642 20.5594 10.9578L11.6086 17.4687C11.0203 17.8953 11.3227 18.8281 12.0492 18.8281H13.5V27.5938H11.8125C11.7094 27.5938 11.625 27.6781 11.625 27.7813V29C11.625 29.1031 11.7094 29.1875 11.8125 29.1875H30.1875C30.2906 29.1875 30.375 29.1031 30.375 29V27.7813C30.375 27.6781 30.2906 27.5938 30.1875 27.5938H28.5V18.8281H29.9531ZM21 12.6102L27.3539 17.232H14.6461L21 12.6102ZM15.1875 18.8281H17.9297V27.5938H15.1875V18.8281ZM19.6172 18.8281H22.3594V27.5938H19.6172V18.8281ZM26.8125 27.5938H24.0469V18.8281H26.8125V27.5938Z" fill="var(--fill-0, #5B099B)"/>
<path d="M29.9531 18.8281C30.6773 18.8281 30.9797 17.8977 30.3914 17.4687L21.4406 10.9578C21.3128 10.8642 21.1585 10.8137 21 10.8137C20.8415 10.8137 20.6872 10.8642 20.5594 10.9578L11.6086 17.4687C11.0203 17.8953 11.3227 18.8281 12.0492 18.8281H13.5V27.5938H11.8125C11.7094 27.5938 11.625 27.6781 11.625 27.7813V29C11.625 29.1031 11.7094 29.1875 11.8125 29.1875H30.1875C30.2906 29.1875 30.375 29.1031 30.375 29V27.7813C30.375 27.6781 30.2906 27.5938 30.1875 27.5938H28.5V18.8281H29.9531ZM21 12.6102L27.3539 17.232H14.6461L21 12.6102ZM15.1875 18.8281H17.9297V27.5938H15.1875V18.8281ZM19.6172 18.8281H22.3594V27.5938H19.6172V18.8281ZM26.8125 27.5938H24.0469V18.8281H26.8125V27.5938Z" fill="url(#paint0_radial_8658_459)"/>
<path d="M29.9531 18.8281C30.6773 18.8281 30.9797 17.8977 30.3914 17.4687L21.4406 10.9578C21.3128 10.8642 21.1585 10.8137 21 10.8137C20.8415 10.8137 20.6872 10.8642 20.5594 10.9578L11.6086 17.4687C11.0203 17.8953 11.3227 18.8281 12.0492 18.8281H13.5V27.5938H11.8125C11.7094 27.5938 11.625 27.6781 11.625 27.7813V29C11.625 29.1031 11.7094 29.1875 11.8125 29.1875H30.1875C30.2906 29.1875 30.375 29.1031 30.375 29V27.7813C30.375 27.6781 30.2906 27.5938 30.1875 27.5938H28.5V18.8281H29.9531ZM21 12.6102L27.3539 17.232H14.6461L21 12.6102ZM15.1875 18.8281H17.9297V27.5938H15.1875V18.8281ZM19.6172 18.8281H22.3594V27.5938H19.6172V18.8281ZM26.8125 27.5938H24.0469V18.8281H26.8125V27.5938Z" fill="url(#paint1_radial_8658_459)"/>
<path d="M29.9531 18.8281C30.6773 18.8281 30.9797 17.8977 30.3914 17.4687L21.4406 10.9578C21.3128 10.8642 21.1585 10.8137 21 10.8137C20.8415 10.8137 20.6872 10.8642 20.5594 10.9578L11.6086 17.4687C11.0203 17.8953 11.3227 18.8281 12.0492 18.8281H13.5V27.5938H11.8125C11.7094 27.5938 11.625 27.6781 11.625 27.7813V29C11.625 29.1031 11.7094 29.1875 11.8125 29.1875H30.1875C30.2906 29.1875 30.375 29.1031 30.375 29V27.7813C30.375 27.6781 30.2906 27.5938 30.1875 27.5938H28.5V18.8281H29.9531ZM21 12.6102L27.3539 17.232H14.6461L21 12.6102ZM15.1875 18.8281H17.9297V27.5938H15.1875V18.8281ZM19.6172 18.8281H22.3594V27.5938H19.6172V18.8281ZM26.8125 27.5938H24.0469V18.8281H26.8125V27.5938Z" fill="url(#paint2_radial_8658_459)" fill-opacity="0.3"/>
</g>
</g>
</g>
<defs>
<radialGradient id="paint0_radial_8658_459" cx="0" cy="0" r="1" gradientTransform="matrix(2.75635 26.9866 16.4753 -11.4096 19.7873 5.07185)" gradientUnits="userSpaceOnUse">
<stop offset="0.241623" stop-color="#AA229C" stop-opacity="0.92"/>
<stop offset="0.848853" stop-color="#A25FF8" stop-opacity="0.89"/>
</radialGradient>
<radialGradient id="paint1_radial_8658_459" cx="0" cy="0" r="1" gradientTransform="matrix(2.8666 17.6561 12.9913 -14.3013 18.1335 10.8137)" gradientUnits="userSpaceOnUse">
<stop stop-color="#C243FE"/>
<stop offset="1" stop-color="#B62FF6" stop-opacity="0.12"/>
</radialGradient>
<radialGradient id="paint2_radial_8658_459" cx="0" cy="0" r="1" gradientTransform="matrix(-3.41787 -9.7611 6.40392 -15.2039 17.3617 24.8811)" gradientUnits="userSpaceOnUse">
<stop stop-color="white" stop-opacity="0.73"/>
<stop offset="1" stop-color="white" stop-opacity="0.12"/>
</radialGradient>
</defs>
</svg>
