<svg preserveAspectRatio="none" width="100%" height="100%" overflow="visible" style="display: block;" viewBox="0 0 12 14" fill="none" xmlns="http://www.w3.org/2000/svg">
<g id="Group">
<path id="Vector" fill-rule="evenodd" clip-rule="evenodd" d="M2.4061 0.666901C2.21252 1.08767 2.11277 1.54175 2.11308 2.0007C2.11308 2.35445 2.2615 2.69371 2.52569 2.94384C2.78987 3.19398 3.14819 3.3345 3.5218 3.3345H7.74797C8.12158 3.3345 8.4799 3.19398 8.74408 2.94384C9.00827 2.69371 9.15669 2.35445 9.15669 2.0007C9.15669 1.52654 9.05244 1.07504 8.86367 0.666901H9.86105C10.2347 0.666901 10.593 0.807426 10.8572 1.05756C11.1214 1.3077 11.2698 1.64696 11.2698 2.0007V12.0042C11.2698 12.358 11.1214 12.6972 10.8572 12.9474C10.593 13.1975 10.2347 13.338 9.86105 13.338H1.40872C1.03511 13.338 0.676791 13.1975 0.412605 12.9474C0.148418 12.6972 0 12.358 0 12.0042V2.0007C0 1.64696 0.148418 1.3077 0.412605 1.05756C0.676791 0.807426 1.03511 0.666901 1.40872 0.666901H2.4061ZM5.63488 8.00281H3.5218C3.33499 8.00281 3.15584 8.07307 3.02374 8.19814C2.89165 8.32321 2.81744 8.49284 2.81744 8.66971C2.81744 8.84658 2.89165 9.01621 3.02374 9.14128C3.15584 9.26635 3.33499 9.33661 3.5218 9.33661H5.63488C5.82169 9.33661 6.00085 9.26635 6.13294 9.14128C6.26504 9.01621 6.33925 8.84658 6.33925 8.66971C6.33925 8.49284 6.26504 8.32321 6.13294 8.19814C6.00085 8.07307 5.82169 8.00281 5.63488 8.00281ZM7.74797 5.33521H3.5218C3.34228 5.33539 3.1696 5.40048 3.03906 5.51717C2.90851 5.63385 2.82996 5.79333 2.81943 5.96302C2.80891 6.13271 2.86722 6.2998 2.98245 6.43014C3.09768 6.56049 3.26112 6.64426 3.43939 6.66434L3.5218 6.66901H7.74797C7.93477 6.66901 8.11393 6.59874 8.24602 6.47368C8.37812 6.34861 8.45233 6.17898 8.45233 6.00211C8.45233 5.82523 8.37812 5.6556 8.24602 5.53054C8.11393 5.40547 7.93477 5.33521 7.74797 5.33521ZM5.63488 0C5.93218 6.37828e-06 6.22613 0.05941 6.49752 0.174329C6.76891 0.289247 7.01164 0.457094 7.20984 0.666901C7.5113 0.985679 7.70571 1.39582 7.74163 1.84865L7.74797 2.0007H3.5218C3.5218 1.5172 3.70282 1.07371 4.00429 0.728255L4.05993 0.666901C4.44733 0.257424 5.00941 0 5.63488 0Z" fill="var(--fill-0, #6B7C97)"/>
</g>
</svg>
