<svg preserveAspectRatio="none" width="100%" height="100%" overflow="visible" style="display: block;" viewBox="0 0 19 19" fill="none" xmlns="http://www.w3.org/2000/svg">
<g id="wpf:name">
<path id="Vector" d="M12.1037 11.6192C11.9875 11.5812 11.2531 11.2502 11.712 9.85515H11.7055C12.9017 8.62308 13.8159 6.6405 13.8159 4.68862C13.8159 1.68735 11.8202 0.114 9.50073 0.114C7.17981 0.114 5.19504 1.68662 5.19504 4.68862C5.19504 6.64854 6.10412 8.63915 7.30769 9.86831C7.77685 11.0989 6.93792 11.5557 6.76254 11.62C4.33346 12.4983 1.48346 14.0995 1.48346 15.6801V16.2728C1.48346 18.4263 5.65908 18.916 9.52338 18.916C13.3935 18.916 17.5165 18.4263 17.5165 16.2728V15.6801C17.5165 14.052 14.6527 12.4633 12.1037 11.6192Z" fill="var(--fill-0, #878787)"/>
</g>
</svg>
