<svg preserveAspectRatio="none" width="100%" height="100%" overflow="visible" style="display: block;" viewBox="0 0 18 24" fill="none" xmlns="http://www.w3.org/2000/svg">
<g id="Group">
<g id="Vector">
<path d="M13.4583 1H3.875C2.28718 1 1 2.28718 1 3.875V19.2083C1 20.7962 2.28718 22.0833 3.875 22.0833H13.4583C15.0462 22.0833 16.3333 20.7962 16.3333 19.2083V3.875C16.3333 2.28718 15.0462 1 13.4583 1Z" stroke="var(--stroke-0, #5B099B)" stroke-width="2" stroke-linecap="round" stroke-linejoin="round"/>
<path d="M13.4583 1H3.875C2.28718 1 1 2.28718 1 3.875V19.2083C1 20.7962 2.28718 22.0833 3.875 22.0833H13.4583C15.0462 22.0833 16.3333 20.7962 16.3333 19.2083V3.875C16.3333 2.28718 15.0462 1 13.4583 1Z" stroke="url(#paint0_radial_8658_455)" stroke-width="2" stroke-linecap="round" stroke-linejoin="round"/>
<path d="M13.4583 1H3.875C2.28718 1 1 2.28718 1 3.875V19.2083C1 20.7962 2.28718 22.0833 3.875 22.0833H13.4583C15.0462 22.0833 16.3333 20.7962 16.3333 19.2083V3.875C16.3333 2.28718 15.0462 1 13.4583 1Z" stroke="url(#paint1_radial_8658_455)" stroke-width="2" stroke-linecap="round" stroke-linejoin="round"/>
<path d="M13.4583 1H3.875C2.28718 1 1 2.28718 1 3.875V19.2083C1 20.7962 2.28718 22.0833 3.875 22.0833H13.4583C15.0462 22.0833 16.3333 20.7962 16.3333 19.2083V3.875C16.3333 2.28718 15.0462 1 13.4583 1Z" stroke="url(#paint2_radial_8658_455)" stroke-opacity="0.3" stroke-width="2" stroke-linecap="round" stroke-linejoin="round"/>
</g>
<g id="Vector_2">
<path d="M6.75 18.25H10.5833" stroke="var(--stroke-0, #5B099B)" stroke-width="2" stroke-linecap="round" stroke-linejoin="round"/>
<path d="M6.75 18.25H10.5833" stroke="url(#paint3_radial_8658_455)" stroke-width="2" stroke-linecap="round" stroke-linejoin="round"/>
<path d="M6.75 18.25H10.5833" stroke="url(#paint4_radial_8658_455)" stroke-width="2" stroke-linecap="round" stroke-linejoin="round"/>
<path d="M6.75 18.25H10.5833" stroke="url(#paint5_radial_8658_455)" stroke-opacity="0.3" stroke-width="2" stroke-linecap="round" stroke-linejoin="round"/>
</g>
</g>
<defs>
<radialGradient id="paint0_radial_8658_455" cx="0" cy="0" r="1" gradientTransform="matrix(2.17803 30.9661 13.0185 -13.0921 7.70833 -5.58854)" gradientUnits="userSpaceOnUse">
<stop offset="0.241623" stop-color="#AA229C" stop-opacity="0.92"/>
<stop offset="0.848853" stop-color="#A25FF8" stop-opacity="0.89"/>
</radialGradient>
<radialGradient id="paint1_radial_8658_455" cx="0" cy="0" r="1" gradientTransform="matrix(2.26515 20.2598 10.2656 -16.4103 6.40152 0.999999)" gradientUnits="userSpaceOnUse">
<stop stop-color="#C243FE"/>
<stop offset="1" stop-color="#B62FF6" stop-opacity="0.12"/>
</radialGradient>
<radialGradient id="paint2_radial_8658_455" cx="0" cy="0" r="1" gradientTransform="matrix(-2.70076 -11.2005 5.06029 -17.4459 5.79167 17.1419)" gradientUnits="userSpaceOnUse">
<stop stop-color="white" stop-opacity="0.73"/>
<stop offset="1" stop-color="white" stop-opacity="0.12"/>
</radialGradient>
<radialGradient id="paint3_radial_8658_455" cx="0" cy="0" r="1" gradientTransform="matrix(0.544507 1.46875 3.25464 -0.62097 8.42708 17.9375)" gradientUnits="userSpaceOnUse">
<stop offset="0.241623" stop-color="#AA229C" stop-opacity="0.92"/>
<stop offset="0.848853" stop-color="#A25FF8" stop-opacity="0.89"/>
</radialGradient>
<radialGradient id="paint4_radial_8658_455" cx="0" cy="0" r="1" gradientTransform="matrix(0.566288 0.960938 2.56639 -0.778354 8.10038 18.25)" gradientUnits="userSpaceOnUse">
<stop stop-color="#C243FE"/>
<stop offset="1" stop-color="#B62FF6" stop-opacity="0.12"/>
</radialGradient>
<radialGradient id="paint5_radial_8658_455" cx="0" cy="0" r="1" gradientTransform="matrix(-0.675189 -0.53125 1.26507 -0.827474 7.94792 19.0156)" gradientUnits="userSpaceOnUse">
<stop stop-color="white" stop-opacity="0.73"/>
<stop offset="1" stop-color="white" stop-opacity="0.12"/>
</radialGradient>
</defs>
</svg>
