<svg preserveAspectRatio="none" width="100%" height="100%" overflow="visible" style="display: block;" viewBox="0 0 13 12" fill="none" xmlns="http://www.w3.org/2000/svg">
<g id="tdesign:task-time-filled">
<path id="Vector" d="M8.66667 1C8.66667 0.723858 8.44281 0.5 8.16667 0.5H4.83333C4.55719 0.5 4.33333 0.723858 4.33333 1V2C4.33333 2.27614 4.55719 2.5 4.83333 2.5H8.16667C8.44281 2.5 8.66667 2.27614 8.66667 2V1Z" fill="var(--fill-0, #6B7C97)"/>
<path id="Vector_2" d="M1.625 2C1.625 1.72386 1.84886 1.5 2.125 1.5H2.75C3.02614 1.5 3.25 1.72386 3.25 2V3C3.25 3.27614 3.47386 3.5 3.75 3.5H9.25C9.52614 3.5 9.75 3.27614 9.75 3V2C9.75 1.72386 9.97386 1.5 10.25 1.5H10.875C11.1511 1.5 11.375 1.72386 11.375 2V5.07188C11.375 5.43261 11.001 5.67819 10.6491 5.59877C10.0371 5.46063 9.39332 5.46454 8.77654 5.61552C7.90927 5.82781 7.15167 6.31712 6.63841 6.99644C6.12515 7.67577 5.8895 8.50109 5.97336 9.32569C6.01414 9.7267 6.12919 10.1149 6.3104 10.4746C6.51638 10.8834 6.25481 11.5 5.79702 11.5H2.125C1.84886 11.5 1.625 11.2761 1.625 11V2Z" fill="var(--fill-0, #6B7C97)"/>
<path id="Vector_3" d="M6.77083 9C6.77083 8.63887 6.84789 8.28127 6.99761 7.94762C7.14733 7.61398 7.36677 7.31082 7.64341 7.05546C7.92005 6.8001 8.24847 6.59753 8.60992 6.45933C8.97137 6.32113 9.35877 6.25 9.75 6.25C10.1412 6.25 10.5286 6.32113 10.8901 6.45933C11.2515 6.59753 11.5799 6.8001 11.8566 7.05546C12.1332 7.31082 12.3527 7.61398 12.5024 7.94762C12.6521 8.28127 12.7292 8.63887 12.7292 9C12.7292 9.72935 12.4153 10.4288 11.8566 10.9445C11.2979 11.4603 10.5401 11.75 9.75 11.75C8.95988 11.75 8.20211 11.4603 7.64341 10.9445C7.08471 10.4288 6.77083 9.72935 6.77083 9ZM11.0576 9.5L10.2917 8.793V7.876H9.20833V9.207L10.2917 10.207L11.0576 9.5Z" fill="var(--fill-0, #6B7C97)"/>
</g>
</svg>
