<svg preserveAspectRatio="none" width="100%" height="100%" overflow="visible" style="display: block;" viewBox="0 0 303 13" fill="none" xmlns="http://www.w3.org/2000/svg">
<g id="status bar">
<path id="battery outline (35% opacity)" opacity="0.35" d="M297.091 0.55681C298.697 0.55681 300 1.75104 300 3.2238V9.2238C300 10.6964 298.697 11.8898 297.091 11.8898H278.909C277.303 11.8898 276 10.6964 276 9.2238V3.2238C276 1.75104 277.303 0.55681 278.909 0.55681H297.091ZM278.909 1.55681C277.958 1.55681 277.177 2.22632 277.098 3.07927L277.091 3.2238V9.2238C277.091 10.0956 277.821 10.811 278.752 10.884L278.909 10.8898H297.091C298.042 10.8898 298.823 10.2205 298.902 9.36736L298.909 9.2238V3.2238C298.909 2.35186 298.179 1.6357 297.248 1.56267L297.091 1.55681H278.909ZM301 4.22283C301.805 4.5616 302.328 5.34969 302.328 6.22283C302.328 7.09596 301.805 7.88405 301 8.22283V4.22283Z" fill="var(--fill-0, white)"/>
<path id="status bar_2" d="M4.38184 0C6.10687 0 7.4726 0.817605 8.26562 2.33008C8.81329 3.30285 9.09955 4.56175 9.09961 6.05762C9.09961 10.0309 7.31683 12.3779 4.31641 12.3779C2.15827 12.3778 0.514691 11.1025 0.163086 9.16504H2.26465C2.53451 10.056 3.31935 10.6123 4.33301 10.6123C6.05796 10.6123 7.07998 9.00141 7.08008 6.30371H6.94141C6.3855 7.42355 5.2652 8.06921 3.88379 8.06934C1.63552 8.06934 0 6.41733 0 4.14453C0.000230826 1.72489 1.81501 0.000110791 4.38184 0ZM23.6113 8.11035H25.2051V9.89258H23.6113V12.0918H21.5918V9.89258H15.8281V8.0127C16.8909 6.05874 18.551 3.43432 20.6357 0.294922H23.6113V8.11035ZM32 12.0918H29.8906V2.4209H29.751L26.8164 4.48047V2.45312L29.8984 0.294922H32V12.0918ZM237 3.22461C237.552 3.22461 238 3.67232 238 4.22461V10.5576C238 11.1099 237.552 11.5576 237 11.5576H236C235.448 11.5576 235 11.1099 235 10.5576V4.22461C235 3.67232 235.448 3.22461 236 3.22461H237ZM241.667 0.890625C242.219 0.890625 242.667 1.33834 242.667 1.89062V10.5576C242.667 11.1098 242.219 11.5576 241.667 11.5576H240.667C240.115 11.5576 239.667 11.1098 239.667 10.5576V1.89062C239.667 1.33834 240.115 0.890625 240.667 0.890625H241.667ZM227.667 7.55664C228.219 7.55664 228.667 8.00436 228.667 8.55664V10.5566C228.667 11.1089 228.219 11.5566 227.667 11.5566H226.667C226.115 11.5566 225.667 11.1089 225.667 10.5566V8.55664C225.667 8.00436 226.115 7.55664 226.667 7.55664H227.667ZM232.334 5.55664C232.886 5.55664 233.334 6.00436 233.334 6.55664V10.5566C233.334 11.1089 232.886 11.5566 232.334 11.5566H231.334C230.782 11.5566 230.334 11.1089 230.334 10.5566V6.55664C230.334 6.00436 230.782 5.55664 231.334 5.55664H232.334ZM257.12 8.95605C258.396 7.87719 260.263 7.87722 261.539 8.95605C261.603 9.01409 261.641 9.09611 261.643 9.18262C261.644 9.26895 261.61 9.35259 261.549 9.41309L259.552 11.4287C259.493 11.4878 259.413 11.5204 259.33 11.5205C259.247 11.5205 259.167 11.4878 259.108 11.4287L257.11 9.41309C257.049 9.35243 257.015 9.26815 257.017 9.18164C257.019 9.09539 257.056 9.01394 257.12 8.95605ZM12.4678 8.25781C13.2444 8.25781 13.7764 8.80583 13.7764 9.5498C13.7762 10.2855 13.2444 10.8408 12.4678 10.8408C11.6996 10.8406 11.1603 10.2853 11.1602 9.5498C11.1602 8.80598 11.6995 8.25803 12.4678 8.25781ZM296.667 2.55664C297.403 2.55682 298 3.15435 298 3.89062V8.55664C298 9.29291 297.403 9.89045 296.667 9.89062H279.333C278.597 9.89045 278 9.29291 278 8.55664V3.89062C278 3.15435 278.597 2.55682 279.333 2.55664H296.667ZM21.5107 2.01172C20.3825 3.67953 19.1557 5.61715 17.7822 8.03711V8.16016H21.625V2.01172H21.5107ZM254.455 6.2666C257.203 3.71057 261.459 3.71049 264.207 6.2666C264.269 6.32648 264.305 6.40896 264.306 6.49512C264.307 6.58127 264.273 6.66441 264.212 6.72559L263.057 7.89258C262.938 8.0114 262.746 8.01411 262.624 7.89844C261.722 7.0813 260.547 6.62891 259.33 6.62891C258.113 6.62941 256.94 7.08177 256.038 7.89844C255.916 8.01431 255.723 8.01167 255.604 7.89258L254.45 6.72559C254.389 6.66451 254.356 6.58128 254.356 6.49512C254.357 6.40896 254.393 6.32646 254.455 6.2666ZM4.39844 1.75781C3.08234 1.75781 2.0686 2.76307 2.06836 4.0791C2.06836 5.42806 3.03349 6.39355 4.39062 6.39355C5.73937 6.39336 6.7285 5.42842 6.72852 4.1123C6.72852 2.77971 5.71468 1.75783 4.39844 1.75781ZM251.79 3.58398C256.005 -0.455185 262.655 -0.455437 266.87 3.58398C266.931 3.64393 266.965 3.72607 266.966 3.81152C266.966 3.89708 266.932 3.97932 266.872 4.04004L265.716 5.20703C265.597 5.32651 265.404 5.32775 265.283 5.20996C263.677 3.68323 261.546 2.83216 259.33 2.83203C257.114 2.83203 254.982 3.68308 253.376 5.20996C253.255 5.32795 253.062 5.32673 252.943 5.20703L251.787 4.04004C251.727 3.97927 251.693 3.8971 251.693 3.81152C251.694 3.72602 251.729 3.64391 251.79 3.58398ZM12.4678 2.13477C13.2444 2.13477 13.7764 2.68278 13.7764 3.42676C13.7762 4.16243 13.2444 4.70996 12.4678 4.70996C11.6996 4.70974 11.1603 4.16228 11.1602 3.42676C11.1602 2.68294 11.6995 2.13499 12.4678 2.13477Z" fill="var(--fill-0, white)"/>
</g>
</svg>
