<svg preserveAspectRatio="none" width="100%" height="100%" overflow="visible" style="display: block;" viewBox="0 0 22 22" fill="none" xmlns="http://www.w3.org/2000/svg">
<g id="Frame 490">
<rect id="Rectangle 68" width="22" height="22" rx="6" fill="var(--fill-0, black)" fill-opacity="0.28"/>
<path id="Vector" d="M13.1998 11.3991C13.1998 12.2832 12.4615 12.9994 11.55 12.9994C10.6385 12.9994 9.90024 12.2832 9.90024 11.3998C9.90024 10.5163 10.6378 9.79938 11.55 9.79938C12.4622 9.79938 13.1998 10.5156 13.1998 11.3991ZM9.30341 7.26344C9.51272 6.85725 9.94125 6.6 10.4101 6.6H12.6899C13.1587 6.6 13.588 6.85725 13.7966 7.26344L14.2796 8.20037H14.8502C15.761 8.20037 16.5 8.91661 16.5 9.80006V13.801C16.5 14.6831 15.761 15.4 14.8502 15.4H8.24976C7.33896 15.4 6.6 14.6838 6.6 13.7996V9.79938C6.6 8.91593 7.33896 8.19969 8.24976 8.19969H8.81972L9.30341 7.26344ZM14.025 11.3998C14.025 10.0749 12.9169 9.00055 11.55 9.00055C10.1831 9.00055 9.075 10.0749 9.075 11.4004C9.075 12.7259 10.1831 13.8003 11.55 13.8003C12.9169 13.8003 14.025 12.7253 14.025 11.3998Z" fill="var(--fill-0, white)"/>
</g>
</svg>
